<svg width="21" height="21" viewBox="0 0 21 21" fill="none" xmlns="http://www.w3.org/2000/svg">
    <path d="M20.7094 19.2904L16.9994 15.6104C18.4395 13.8148 19.1369 11.5357 18.9482 9.24169C18.7595 6.94769 17.6991 4.81318 15.9849 3.27704C14.2708 1.7409 12.0332 0.919903 9.73234 0.982863C7.43145 1.04582 5.24214 1.98795 3.61456 3.61553C1.98698 5.24311 1.04485 7.43243 0.981887 9.73332C0.918926 12.0342 1.73992 14.2718 3.27606 15.9859C4.8122 17.7001 6.94672 18.7605 9.24072 18.9492C11.5347 19.1379 13.8138 18.4405 15.6094 17.0004L19.2894 20.6804C19.3824 20.7741 19.493 20.8485 19.6148 20.8993C19.7367 20.9501 19.8674 20.9762 19.9994 20.9762C20.1314 20.9762 20.2621 20.9501 20.384 20.8993C20.5059 20.8485 20.6165 20.7741 20.7094 20.6804C20.8897 20.4939 20.9904 20.2447 20.9904 19.9854C20.9904 19.7261 20.8897 19.4769 20.7094 19.2904ZM9.99942 17.0004C8.61495 17.0004 7.26157 16.5899 6.11042 15.8207C4.95928 15.0515 4.06207 13.9583 3.53226 12.6792C3.00245 11.4001 2.86382 9.99263 3.13392 8.63476C3.40402 7.27689 4.0707 6.02961 5.04967 5.05065C6.02864 4.07168 7.27592 3.40499 8.63378 3.1349C9.99165 2.8648 11.3991 3.00342 12.6782 3.53324C13.9573 4.06305 15.0505 4.96026 15.8197 6.1114C16.5889 7.26255 16.9994 8.61592 16.9994 10.0004C16.9994 11.8569 16.2619 13.6374 14.9492 14.9501C13.6364 16.2629 11.8559 17.0004 9.99942 17.0004Z" fill="#666666"/>
</svg>